<?xml version="1.0" standalone="no"?>
<!DOCTYPE svg PUBLIC "-//W3C//DTD SVG 20010904//EN"
 "http://www.w3.org/TR/2001/REC-SVG-20010904/DTD/svg10.dtd">
<svg version="1.0" xmlns="http://www.w3.org/2000/svg"
 width="437.000000pt" height="257.000000pt" viewBox="0 0 437.000000 257.000000"
 preserveAspectRatio="xMidYMid meet">
<metadata>
Created by potrace 1.16, written by Peter Selinger 2001-2019
</metadata>
<g transform="translate(0.000000,257.000000) scale(0.100000,-0.100000)"
fill="#000000" stroke="none">
<path d="M3370 2531 c-115 -41 -162 -64 -248 -118 -66 -42 -172 -131 -172
-144 0 -5 62 -9 138 -9 l138 0 16 28 c28 47 162 195 204 225 21 15 48 34 59
42 19 14 19 14 -5 14 -14 0 -72 -17 -130 -38z"/>
<path d="M3800 2531 c-115 -41 -162 -64 -248 -118 -66 -42 -172 -131 -172
-144 0 -5 62 -9 138 -9 l138 0 16 28 c28 47 162 195 204 225 21 15 48 34 59
42 19 14 19 14 -5 14 -14 0 -72 -17 -130 -38z"/>
<path d="M4230 2531 c-115 -41 -166 -66 -250 -119 -64 -40 -170 -130 -170
-143 0 -5 62 -9 138 -9 l137 1 50 71 c51 72 172 192 213 211 26 12 29 27 5 26
-10 0 -65 -17 -123 -38z"/>
<path d="M1283 2396 c-277 -53 -509 -218 -652 -465 -66 -114 -120 -302 -121
-423 l0 -48 210 0 210 0 0 90 0 90 -152 0 -153 1 220 215 c121 118 291 282
378 365 l157 151 0 -321 0 -321 486 0 485 0 -7 23 c-40 129 -125 271 -222 370
-122 123 -280 216 -440 258 -100 27 -299 34 -399 15z"/>
<path d="M2831 2106 c-28 -46 -51 -89 -51 -95 0 -8 47 -11 153 -11 l153 0 44
88 c25 48 46 90 48 95 2 4 -64 7 -146 7 l-151 0 -50 -84z"/>
<path d="M3283 2143 c-56 -90 -73 -120 -73 -132 0 -8 46 -11 153 -11 l152 0
48 95 47 95 -149 0 -149 0 -29 -47z"/>
<path d="M3712 2143 c-16 -27 -42 -69 -57 -95 l-27 -48 159 0 158 0 46 95 46
95 -148 0 -147 0 -30 -47z"/>
<path d="M3483 1940 c-5 -18 -15 -20 -161 -22 l-156 -3 -28 -75 c-15 -41 -31
-83 -34 -93 -5 -16 5 -17 156 -15 l162 3 38 113 c21 61 36 112 33 112 -3 0 -7
-9 -10 -20z"/>
<path d="M3051 1938 c-1 -16 -17 -18 -158 -20 l-157 -3 -28 -75 c-15 -41 -31
-83 -34 -93 -5 -16 5 -17 157 -15 l162 3 33 100 c19 55 32 105 30 110 -3 6 -5
2 -5 -7z"/>
<path d="M3910 1937 c0 -15 -17 -17 -158 -17 l-158 0 -28 -82 c-16 -46 -31
-89 -34 -96 -3 -10 30 -12 158 -10 l162 3 34 104 c20 57 33 106 30 109 -4 3
-6 -2 -6 -11z"/>
<path d="M2968 1672 c-6 -22 -9 -22 -165 -22 l-159 0 -38 -127 c-70 -237 -124
-361 -222 -509 -101 -152 -286 -327 -486 -459 -32 -21 -58 -41 -58 -45 0 -10
125 9 232 36 346 87 600 302 748 634 66 148 168 472 157 503 -2 6 -6 1 -9 -11z"/>
<path d="M3234 1652 l-162 -2 -17 -62 c-101 -360 -203 -558 -388 -754 -78 -82
-237 -212 -354 -289 -24 -15 -43 -31 -43 -35 0 -9 105 6 213 31 258 61 476
199 627 397 68 90 171 299 220 449 38 118 76 263 68 266 -1 1 -76 1 -164 -1z"/>
<path d="M3664 1652 l-160 -2 -34 -113 c-81 -269 -150 -421 -258 -566 -109
-146 -251 -277 -440 -405 -39 -27 -72 -52 -72 -56 0 -9 108 6 205 29 470 112
740 409 895 984 17 65 30 121 28 125 -2 4 -75 6 -164 4z"/>
<path d="M1380 1555 l0 -95 506 0 507 0 -7 80 c-3 44 -9 86 -12 95 -5 13 -66
15 -500 15 l-494 0 0 -95z"/>
<path d="M520 1359 c0 -16 7 -61 16 -100 l16 -69 189 0 189 0 0 100 0 100
-205 0 -205 0 0 -31z"/>
<path d="M1380 1290 l0 -100 484 0 484 0 16 69 c9 39 16 84 16 100 l0 31 -500
0 -500 0 0 -100z"/>
<path d="M280 1321 c0 -5 7 -27 15 -50 17 -48 18 -47 -83 -71 -51 -12 -53 -14
-47 -39 4 -14 8 -27 9 -28 1 -1 30 7 65 17 83 26 88 26 95 -15 4 -19 13 -40
20 -47 10 -11 -2 -20 -65 -48 -43 -19 -79 -38 -79 -41 0 -3 6 -14 14 -24 14
-19 16 -19 50 -2 l36 17 34 -69 35 -68 -40 -18 c-43 -20 -44 -22 -25 -48 13
-17 18 -16 92 20 44 21 81 39 82 40 2 1 1 11 -3 23 -7 22 -25 23 -66 6 -12 -5
-23 9 -47 61 l-32 68 31 13 c22 9 30 18 26 30 -3 9 -23 77 -44 149 -30 105
-42 133 -55 133 -10 0 -18 -4 -18 -9z"/>
<path d="M4 1229 c11 -72 91 -300 142 -405 215 -446 598 -712 1159 -804 116
-19 171 -20 1493 -20 908 0 1372 3 1372 10 0 7 -453 10 -1337 10 -1266 0
-1345 1 -1468 19 -580 86 -961 334 -1180 771 -54 108 -106 246 -139 369 -25
93 -54 128 -42 50z"/>
<path d="M580 1115 c0 -10 42 -90 76 -142 l34 -53 120 0 120 0 0 100 0 100
-175 0 c-96 0 -175 -2 -175 -5z"/>
<path d="M1380 1020 l0 -100 410 0 c405 0 409 0 429 21 22 24 91 151 91 168 0
8 -133 11 -465 11 l-465 0 0 -100z"/>
<path d="M760 841 c0 -15 146 -141 163 -141 4 0 7 34 7 75 l0 75 -85 0 c-47 0
-85 -4 -85 -9z"/>
<path d="M1380 755 l0 -95 269 0 269 0 53 35 c65 44 169 134 169 146 0 5 -161
9 -380 9 l-380 0 0 -95z"/>
<path d="M415 775 c-34 -33 -33 -79 4 -136 32 -52 92 -105 129 -114 58 -14
112 42 97 102 -13 53 -57 114 -103 144 -57 36 -95 37 -127 4z m140 -58 c19
-19 37 -46 40 -60 28 -109 -88 -112 -143 -4 -23 44 -24 48 -8 72 24 37 69 34
111 -8z"/>
<path d="M754 573 c3 -8 -30 -26 -94 -50 -55 -21 -100 -40 -100 -43 0 -3 9
-11 21 -18 17 -11 27 -11 50 -2 25 11 34 8 83 -22 48 -28 55 -37 56 -64 0 -28
25 -64 44 -64 12 0 -5 224 -18 233 -6 5 5 6 27 3 41 -5 49 7 16 25 -31 16 -91
18 -85 2z"/>
<path d="M880 465 c0 -9 20 -24 45 -35 50 -21 49 -14 6 -112 -20 -47 -20 -48
-1 -58 30 -16 34 -13 59 53 14 34 27 66 31 70 4 4 27 -1 53 -12 40 -17 46 -18
51 -4 4 9 5 17 4 18 -9 5 -236 95 -241 95 -4 0 -7 -7 -7 -15z"/>
<path d="M1988 356 c-20 -7 -44 -21 -53 -30 -9 -9 -23 -16 -30 -16 -7 0 -27
-12 -44 -26 -23 -19 -31 -34 -31 -57 0 -40 7 -49 50 -76 69 -41 233 -19 254
34 10 26 7 70 -5 82 -8 8 -5 13 11 18 30 10 21 39 -13 43 -16 2 -34 -1 -40 -7
-8 -6 -32 -7 -62 -2 l-50 7 38 13 c20 7 37 17 37 22 0 12 -18 11 -62 -5z m56
-80 c39 -16 52 -45 36 -76 -29 -54 -161 -54 -190 0 -34 63 67 113 154 76z"/>
<path d="M1221 293 c-6 -37 -14 -80 -17 -95 -5 -26 -3 -28 24 -28 29 0 30 2
38 64 l9 64 67 -78 c73 -83 114 -106 123 -66 9 39 26 159 23 161 -2 1 -13 6
-25 9 -24 8 -27 1 -38 -77 l-6 -48 -42 48 c-80 91 -92 102 -118 108 -26 6 -27
5 -38 -62z"/>
<path d="M3000 351 c0 -4 15 -13 33 -19 17 -5 25 -10 17 -11 -8 -1 -28 -22
-45 -49 -16 -26 -45 -66 -62 -90 -18 -23 -33 -44 -33 -47 0 -3 13 -5 29 -5 20
0 34 8 45 25 15 22 23 25 81 25 58 0 66 -3 81 -25 11 -17 25 -25 45 -25 16 0
29 2 29 4 0 3 -29 44 -65 92 -43 58 -61 90 -54 95 8 4 1 13 -19 23 -33 17 -82
22 -82 7z"/>
<path d="M3790 345 c-14 -7 -25 -17 -25 -22 1 -4 -15 -15 -35 -24 -76 -34 -76
-110 0 -150 42 -23 145 -25 195 -5 78 33 84 113 11 151 -21 11 -49 30 -62 43
-26 25 -48 27 -84 7z m121 -81 c11 -10 19 -30 19 -45 0 -35 -40 -59 -100 -59
-23 0 -54 7 -70 15 -48 25 -37 85 20 108 26 11 112 -2 131 -19z"/>
<path d="M1785 331 c-3 -6 -17 -11 -31 -11 -23 0 -24 -3 -24 -62 0 -35 -4 -69
-9 -77 -11 -18 -93 -26 -120 -12 -18 10 -21 20 -21 81 l0 70 -30 0 -30 0 0
-73 c0 -102 12 -112 130 -112 111 0 130 13 130 89 0 50 1 52 33 61 41 13 45
48 5 53 -14 2 -29 -2 -33 -7z"/>
<path d="M2233 305 c-75 -32 -83 -114 -14 -153 73 -41 229 -21 239 32 5 23
-33 21 -68 -5 -23 -18 -38 -21 -79 -17 -63 6 -81 21 -81 65 0 29 5 36 35 49
19 7 46 14 59 14 29 0 76 -20 76 -32 0 -4 14 -7 30 -6 37 3 34 16 -10 46 -39
26 -135 30 -187 7z"/>
<path d="M2630 225 c0 -95 0 -95 25 -95 23 0 25 4 25 40 l0 40 75 0 75 0 0
-40 c0 -38 2 -40 30 -40 l30 0 0 95 0 95 -30 0 c-28 0 -30 -2 -30 -37 l0 -38
-75 0 -75 0 0 38 c0 33 -3 37 -25 37 -25 0 -25 0 -25 -95z"/>
<path d="M3360 225 l0 -95 31 0 31 0 -4 64 c-2 42 1 62 7 57 6 -4 41 -33 79
-64 48 -39 79 -57 98 -57 l28 0 0 95 0 95 -30 0 -30 0 0 -66 0 -66 -79 66
c-53 44 -88 66 -105 66 l-26 0 0 -95z"/>
</g>
</svg>
